<mxfile host="app.diagrams.net" modified="2024-07-02T06:36:17.797Z" agent="Mozilla/5.0 (Macintosh; Intel Mac OS X 10_15_7) AppleWebKit/537.36 (KHTML, like Gecko) Chrome/125.0.0.0 Safari/537.36" version="24.6.4" etag="HLaXKZnFyWhFjonOfZAH" type="github">
  <diagram name="Page-1" id="XVMLtCNDQvtFNDi1HGj6">
    <mxGraphModel>
      <root>
        <mxCell id="0" />
        <mxCell id="1" parent="0" />
      </root>
    </mxGraphModel>
  </diagram>
</mxfile>
